{
    "asset" : {
        "generator" : "Khronos glTF Blender I/O v1.7.33",
        "version" : "2.0"
    },
    "scene" : 0,
    "scenes" : [
        {
            "name" : "Scene",
            "nodes" : [
                12
            ]
        }
    ],
    "nodes" : [
        {
            "mesh" : 0,
            "name" : "841477"
        },
        {
            "mesh" : 1,
            "name" : "841504"
        },
        {
            "mesh" : 2,
            "name" : "841589"
        },
        {
            "mesh" : 3,
            "name" : "841595"
        },
        {
            "mesh" : 4,
            "name" : "841606"
        },
        {
            "mesh" : 5,
            "name" : "841617"
        },
        {
            "mesh" : 6,
            "name" : "841627"
        },
        {
            "mesh" : 7,
            "name" : "841632"
        },
        {
            "mesh" : 8,
            "name" : "841811"
        },
        {
            "mesh" : 9,
            "name" : "841861"
        },
        {
            "children" : [
                0,
                1,
                2,
                3,
                4,
                5,
                6,
                7,
                8,
                9
            ],
            "name" : "Other"
        },
        {
            "name" : "Walls"
        },
        {
            "children" : [
                10,
                11
            ],
            "name" : "(1) 6'3x9'4 Breezeway Door with Arch and Windows.0002",
            "rotation" : [
                0.7071068286895752,
                0,
                0,
                -0.7071068286895752
            ],
            "scale" : [
                0.30480000376701355,
                0.30480000376701355,
                0.30480000376701355
            ]
        }
    ],
    "materials" : [
        {
            "doubleSided" : true,
            "name" : "Spruce",
            "normalTexture" : {
                "index" : 0,
                "scale" : 0.009999999776482582
            },
            "pbrMetallicRoughness" : {
                "baseColorFactor" : [
                    0.9333121180534363,
                    0.6909598112106323,
                    0.4728594422340393,
                    1
                ],
                "baseColorTexture" : {
                    "index" : 1
                },
                "metallicFactor" : 0
            }
        },
        {
            "doubleSided" : true,
            "name" : "DEFAULT",
            "pbrMetallicRoughness" : {
                "baseColorFactor" : [
                    0.49803921580314636,
                    0.49803921580314636,
                    0.49803921580314636,
                    1
                ]
            }
        },
        {
            "doubleSided" : true,
            "name" : "Door T&G",
            "pbrMetallicRoughness" : {
                "baseColorFactor" : [
                    0.3149999976158142,
                    0.3149999976158142,
                    0.3149999976158142,
                    1
                ],
                "baseColorTexture" : {
                    "index" : 2
                },
                "metallicFactor" : 0.15000000596046448
            }
        }
    ],
    "meshes" : [
        {
            "name" : "Mesh_1",
            "primitives" : [
                {
                    "attributes" : {
                        "POSITION" : 0,
                        "NORMAL" : 1,
                        "TEXCOORD_0" : 2
                    },
                    "indices" : 3,
                    "material" : 0
                }
            ]
        },
        {
            "name" : "Mesh_2",
            "primitives" : [
                {
                    "attributes" : {
                        "POSITION" : 4,
                        "NORMAL" : 5,
                        "TEXCOORD_0" : 6
                    },
                    "indices" : 7,
                    "material" : 0
                }
            ]
        },
        {
            "name" : "Mesh_4",
            "primitives" : [
                {
                    "attributes" : {
                        "POSITION" : 8,
                        "NORMAL" : 9,
                        "TEXCOORD_0" : 10
                    },
                    "indices" : 11,
                    "material" : 1
                }
            ]
        },
        {
            "name" : "Mesh_5",
            "primitives" : [
                {
                    "attributes" : {
                        "POSITION" : 12,
                        "NORMAL" : 13,
                        "TEXCOORD_0" : 14
                    },
                    "indices" : 15,
                    "material" : 1
                }
            ]
        },
        {
            "name" : "Mesh_6",
            "primitives" : [
                {
                    "attributes" : {
                        "POSITION" : 16,
                        "NORMAL" : 17,
                        "TEXCOORD_0" : 18
                    },
                    "indices" : 19,
                    "material" : 1
                }
            ]
        },
        {
            "name" : "Mesh_7",
            "primitives" : [
                {
                    "attributes" : {
                        "POSITION" : 20,
                        "NORMAL" : 21,
                        "TEXCOORD_0" : 22
                    },
                    "indices" : 23,
                    "material" : 1
                }
            ]
        },
        {
            "name" : "Mesh_8",
            "primitives" : [
                {
                    "attributes" : {
                        "POSITION" : 24,
                        "NORMAL" : 25,
                        "TEXCOORD_0" : 26
                    },
                    "indices" : 27,
                    "material" : 1
                }
            ]
        },
        {
            "name" : "Mesh_9",
            "primitives" : [
                {
                    "attributes" : {
                        "POSITION" : 28,
                        "NORMAL" : 29,
                        "TEXCOORD_0" : 30
                    },
                    "indices" : 31,
                    "material" : 1
                }
            ]
        },
        {
            "name" : "Mesh_10",
            "primitives" : [
                {
                    "attributes" : {
                        "POSITION" : 32,
                        "NORMAL" : 33,
                        "TEXCOORD_0" : 34
                    },
                    "indices" : 35,
                    "material" : 2
                }
            ]
        },
        {
            "name" : "Mesh_11",
            "primitives" : [
                {
                    "attributes" : {
                        "POSITION" : 36,
                        "NORMAL" : 37,
                        "TEXCOORD_0" : 38
                    },
                    "indices" : 39,
                    "material" : 1
                }
            ]
        }
    ],
    "textures" : [
        {
            "sampler" : 0,
            "source" : 0
        },
        {
            "sampler" : 0,
            "source" : 1
        },
        {
            "sampler" : 0,
            "source" : 2
        }
    ],
    "images" : [
        {
            "bufferView" : 4,
            "mimeType" : "image/jpeg",
            "name" : "Image_1"
        },
        {
            "bufferView" : 5,
            "mimeType" : "image/jpeg",
            "name" : "Image_0"
        },
        {
            "bufferView" : 38,
            "mimeType" : "image/jpeg",
            "name" : "Image_2"
        }
    ],
    "accessors" : [
        {
            "bufferView" : 0,
            "componentType" : 5126,
            "count" : 139,
            "max" : [
                6.25,
                -0.20948700606822968,
                9.333333015441895
            ],
            "min" : [
                0.020833000540733337,
                -0.47916701436042786,
                0
            ],
            "type" : "VEC3"
        },
        {
            "bufferView" : 1,
            "componentType" : 5126,
            "count" : 139,
            "type" : "VEC3"
        },
        {
            "bufferView" : 2,
            "componentType" : 5126,
            "count" : 139,
            "type" : "VEC2"
        },
        {
            "bufferView" : 3,
            "componentType" : 5123,
            "count" : 252,
            "type" : "SCALAR"
        },
        {
            "bufferView" : 6,
            "componentType" : 5126,
            "count" : 88,
            "max" : [
                5.75,
                -0.35416701436042786,
                4.5
            ],
            "min" : [
                0.5,
                -0.47916701436042786,
                0.5
            ],
            "type" : "VEC3"
        },
        {
            "bufferView" : 7,
            "componentType" : 5126,
            "count" : 88,
            "type" : "VEC3"
        },
        {
            "bufferView" : 8,
            "componentType" : 5126,
            "count" : 88,
            "type" : "VEC2"
        },
        {
            "bufferView" : 9,
            "componentType" : 5123,
            "count" : 132,
            "type" : "SCALAR"
        },
        {
            "bufferView" : 10,
            "componentType" : 5126,
            "count" : 48,
            "max" : [
                0.375,
                -0.18595799803733826,
                4.041560173034668
            ],
            "min" : [
                0.125,
                -0.20948700606822968,
                3.471302032470703
            ],
            "type" : "VEC3"
        },
        {
            "bufferView" : 11,
            "componentType" : 5126,
            "count" : 48,
            "type" : "VEC3"
        },
        {
            "bufferView" : 12,
            "componentType" : 5126,
            "count" : 48,
            "type" : "VEC2"
        },
        {
            "bufferView" : 13,
            "componentType" : 5123,
            "count" : 72,
            "type" : "SCALAR"
        },
        {
            "bufferView" : 14,
            "componentType" : 5126,
            "count" : 48,
            "max" : [
                0.27083298563957214,
                -0.060958001762628555,
                3.9902889728546143
            ],
            "min" : [
                0.22916699945926666,
                -0.18595799803733826,
                3.4987380504608154
            ],
            "type" : "VEC3"
        },
        {
            "bufferView" : 15,
            "componentType" : 5126,
            "count" : 48,
            "type" : "VEC3"
        },
        {
            "bufferView" : 16,
            "componentType" : 5126,
            "count" : 48,
            "type" : "VEC2"
        },
        {
            "bufferView" : 17,
            "componentType" : 5123,
            "count" : 72,
            "type" : "SCALAR"
        },
        {
            "bufferView" : 18,
            "componentType" : 5126,
            "count" : 62,
            "max" : [
                0.3211289942264557,
                0.014934999868273735,
                4.185301780700684
            ],
            "min" : [
                0.1788710057735443,
                -0.060958001762628555,
                3.3069920539855957
            ],
            "type" : "VEC3"
        },
        {
            "bufferView" : 19,
            "componentType" : 5126,
            "count" : 62,
            "type" : "VEC3"
        },
        {
            "bufferView" : 20,
            "componentType" : 5126,
            "count" : 62,
            "type" : "VEC2"
        },
        {
            "bufferView" : 21,
            "componentType" : 5123,
            "count" : 84,
            "type" : "SCALAR"
        },
        {
            "bufferView" : 22,
            "componentType" : 5126,
            "count" : 43,
            "max" : [
                6.294629096984863,
                -0.1724649965763092,
                0.18684400618076324
            ],
            "min" : [
                5.921554088592529,
                -0.6041669845581055,
                0
            ],
            "type" : "VEC3"
        },
        {
            "bufferView" : 23,
            "componentType" : 5126,
            "count" : 43,
            "type" : "VEC3"
        },
        {
            "bufferView" : 24,
            "componentType" : 5126,
            "count" : 43,
            "type" : "VEC2"
        },
        {
            "bufferView" : 25,
            "componentType" : 5123,
            "count" : 60,
            "type" : "SCALAR"
        },
        {
            "bufferView" : 26,
            "componentType" : 5126,
            "count" : 571,
            "max" : [
                6.147870063781738,
                -0.21974299848079681,
                0.17621399462223053
            ],
            "min" : [
                6.064537048339844,
                -0.30307599902153015,
                0.012691999785602093
            ],
            "type" : "VEC3"
        },
        {
            "bufferView" : 27,
            "componentType" : 5126,
            "count" : 571,
            "type" : "VEC3"
        },
        {
            "bufferView" : 28,
            "componentType" : 5126,
            "count" : 571,
            "type" : "VEC2"
        },
        {
            "bufferView" : 29,
            "componentType" : 5123,
            "count" : 1434,
            "type" : "SCALAR"
        },
        {
            "bufferView" : 30,
            "componentType" : 5126,
            "count" : 481,
            "max" : [
                6.1926398277282715,
                -0.1759680062532425,
                0.18684400618076324
            ],
            "min" : [
                6.025973796844482,
                -0.34263500571250916,
                0.06102500110864639
            ],
            "type" : "VEC3"
        },
        {
            "bufferView" : 31,
            "componentType" : 5126,
            "count" : 481,
            "type" : "VEC3"
        },
        {
            "bufferView" : 32,
            "componentType" : 5126,
            "count" : 481,
            "type" : "VEC2"
        },
        {
            "bufferView" : 33,
            "componentType" : 5123,
            "count" : 1092,
            "type" : "SCALAR"
        },
        {
            "bufferView" : 34,
            "componentType" : 5126,
            "count" : 59,
            "max" : [
                6.25,
                -0.47916701436042786,
                9.333333015441895
            ],
            "min" : [
                0.020833000540733337,
                -0.6041669845581055,
                0
            ],
            "type" : "VEC3"
        },
        {
            "bufferView" : 35,
            "componentType" : 5126,
            "count" : 59,
            "type" : "VEC3"
        },
        {
            "bufferView" : 36,
            "componentType" : 5126,
            "count" : 59,
            "type" : "VEC2"
        },
        {
            "bufferView" : 37,
            "componentType" : 5123,
            "count" : 96,
            "type" : "SCALAR"
        },
        {
            "bufferView" : 39,
            "componentType" : 5126,
            "count" : 234,
            "max" : [
                4.7604169845581055,
                -0.41666701436042786,
                8.375
            ],
            "min" : [
                1.5104169845581055,
                -0.47916701436042786,
                5.125
            ],
            "type" : "VEC3"
        },
        {
            "bufferView" : 40,
            "componentType" : 5126,
            "count" : 234,
            "type" : "VEC3"
        },
        {
            "bufferView" : 41,
            "componentType" : 5126,
            "count" : 234,
            "type" : "VEC2"
        },
        {
            "bufferView" : 42,
            "componentType" : 5123,
            "count" : 396,
            "type" : "SCALAR"
        }
    ],
    "bufferViews" : [
        {
            "buffer" : 0,
            "byteLength" : 1668,
            "byteOffset" : 0
        },
        {
            "buffer" : 0,
            "byteLength" : 1668,
            "byteOffset" : 1668
        },
        {
            "buffer" : 0,
            "byteLength" : 1112,
            "byteOffset" : 3336
        },
        {
            "buffer" : 0,
            "byteLength" : 504,
            "byteOffset" : 4448
        },
        {
            "buffer" : 0,
            "byteLength" : 43710,
            "byteOffset" : 4952
        },
        {
            "buffer" : 0,
            "byteLength" : 40296,
            "byteOffset" : 48664
        },
        {
            "buffer" : 0,
            "byteLength" : 1056,
            "byteOffset" : 88960
        },
        {
            "buffer" : 0,
            "byteLength" : 1056,
            "byteOffset" : 90016
        },
        {
            "buffer" : 0,
            "byteLength" : 704,
            "byteOffset" : 91072
        },
        {
            "buffer" : 0,
            "byteLength" : 264,
            "byteOffset" : 91776
        },
        {
            "buffer" : 0,
            "byteLength" : 576,
            "byteOffset" : 92040
        },
        {
            "buffer" : 0,
            "byteLength" : 576,
            "byteOffset" : 92616
        },
        {
            "buffer" : 0,
            "byteLength" : 384,
            "byteOffset" : 93192
        },
        {
            "buffer" : 0,
            "byteLength" : 144,
            "byteOffset" : 93576
        },
        {
            "buffer" : 0,
            "byteLength" : 576,
            "byteOffset" : 93720
        },
        {
            "buffer" : 0,
            "byteLength" : 576,
            "byteOffset" : 94296
        },
        {
            "buffer" : 0,
            "byteLength" : 384,
            "byteOffset" : 94872
        },
        {
            "buffer" : 0,
            "byteLength" : 144,
            "byteOffset" : 95256
        },
        {
            "buffer" : 0,
            "byteLength" : 744,
            "byteOffset" : 95400
        },
        {
            "buffer" : 0,
            "byteLength" : 744,
            "byteOffset" : 96144
        },
        {
            "buffer" : 0,
            "byteLength" : 496,
            "byteOffset" : 96888
        },
        {
            "buffer" : 0,
            "byteLength" : 168,
            "byteOffset" : 97384
        },
        {
            "buffer" : 0,
            "byteLength" : 516,
            "byteOffset" : 97552
        },
        {
            "buffer" : 0,
            "byteLength" : 516,
            "byteOffset" : 98068
        },
        {
            "buffer" : 0,
            "byteLength" : 344,
            "byteOffset" : 98584
        },
        {
            "buffer" : 0,
            "byteLength" : 120,
            "byteOffset" : 98928
        },
        {
            "buffer" : 0,
            "byteLength" : 6852,
            "byteOffset" : 99048
        },
        {
            "buffer" : 0,
            "byteLength" : 6852,
            "byteOffset" : 105900
        },
        {
            "buffer" : 0,
            "byteLength" : 4568,
            "byteOffset" : 112752
        },
        {
            "buffer" : 0,
            "byteLength" : 2868,
            "byteOffset" : 117320
        },
        {
            "buffer" : 0,
            "byteLength" : 5772,
            "byteOffset" : 120188
        },
        {
            "buffer" : 0,
            "byteLength" : 5772,
            "byteOffset" : 125960
        },
        {
            "buffer" : 0,
            "byteLength" : 3848,
            "byteOffset" : 131732
        },
        {
            "buffer" : 0,
            "byteLength" : 2184,
            "byteOffset" : 135580
        },
        {
            "buffer" : 0,
            "byteLength" : 708,
            "byteOffset" : 137764
        },
        {
            "buffer" : 0,
            "byteLength" : 708,
            "byteOffset" : 138472
        },
        {
            "buffer" : 0,
            "byteLength" : 472,
            "byteOffset" : 139180
        },
        {
            "buffer" : 0,
            "byteLength" : 192,
            "byteOffset" : 139652
        },
        {
            "buffer" : 0,
            "byteLength" : 24921,
            "byteOffset" : 139844
        },
        {
            "buffer" : 0,
            "byteLength" : 2808,
            "byteOffset" : 164768
        },
        {
            "buffer" : 0,
            "byteLength" : 2808,
            "byteOffset" : 167576
        },
        {
            "buffer" : 0,
            "byteLength" : 1872,
            "byteOffset" : 170384
        },
        {
            "buffer" : 0,
            "byteLength" : 792,
            "byteOffset" : 172256
        }
    ],
    "samplers" : [
        {
            "magFilter" : 9729,
            "minFilter" : 9987
        }
    ],
    "buffers" : [
        {
            "byteLength" : 173048,
            "uri" : "data:application/octet-stream;base64,"
        }
    ]
}
