{
    "asset" : {
        "generator" : "Khronos glTF Blender I/O v1.7.33",
        "version" : "2.0"
    },
    "scene" : 0,
    "scenes" : [
        {
            "name" : "Scene",
            "nodes" : [
                5
            ]
        }
    ],
    "nodes" : [
        {
            "mesh" : 0,
            "name" : "951452"
        },
        {
            "mesh" : 1,
            "name" : "951476"
        },
        {
            "mesh" : 2,
            "name" : "951485"
        },
        {
            "mesh" : 3,
            "name" : "951527"
        },
        {
            "children" : [
                0,
                1,
                2,
                3
            ],
            "name" : "Other"
        },
        {
            "children" : [
                4
            ],
            "name" : "Standard Cupola 9-12 pitch",
            "rotation" : [
                0.7071068286895752,
                0,
                0,
                -0.7071068286895752
            ],
            "scale" : [
                0.30480000376701355,
                0.30480000376701355,
                0.30480000376701355
            ]
        }
    ],
    "materials" : [
        {
            "doubleSided" : true,
            "name" : "Softwood, Lumber",
            "pbrMetallicRoughness" : {
                "baseColorFactor" : [
                    0.8745098114013672,
                    0.7529411911964417,
                    0.5254902243614197,
                    1
                ],
                "metallicFactor" : 0
            }
        },
        {
            "doubleSided" : true,
            "name" : "Comp Roofing",
            "normalTexture" : {
                "index" : 0,
                "scale" : 0.030000001192092896
            },
            "pbrMetallicRoughness" : {
                "baseColorFactor" : [
                    0.3149999976158142,
                    0.3149999976158142,
                    0.3149999976158142,
                    1
                ],
                "metallicFactor" : 0.5
            }
        }
    ],
    "meshes" : [
        {
            "name" : "Mesh_0",
            "primitives" : [
                {
                    "attributes" : {
                        "POSITION" : 0,
                        "NORMAL" : 1,
                        "TEXCOORD_0" : 2
                    },
                    "indices" : 3,
                    "material" : 0
                }
            ]
        },
        {
            "name" : "Mesh_1",
            "primitives" : [
                {
                    "attributes" : {
                        "POSITION" : 4,
                        "NORMAL" : 5,
                        "TEXCOORD_0" : 6
                    },
                    "indices" : 7,
                    "material" : 1
                }
            ]
        },
        {
            "name" : "Mesh_2",
            "primitives" : [
                {
                    "attributes" : {
                        "POSITION" : 8,
                        "NORMAL" : 9,
                        "TEXCOORD_0" : 10
                    },
                    "indices" : 11,
                    "material" : 0
                }
            ]
        },
        {
            "name" : "Mesh_3",
            "primitives" : [
                {
                    "attributes" : {
                        "POSITION" : 12,
                        "NORMAL" : 13,
                        "TEXCOORD_0" : 14
                    },
                    "indices" : 15,
                    "material" : 0
                }
            ]
        }
    ],
    "textures" : [
        {
            "sampler" : 0,
            "source" : 0
        }
    ],
    "images" : [
        {
            "mimeType" : "image/png",
            "name" : "Image_0",
            "uri" : "Image_0.png"
        }
    ],
    "accessors" : [
        {
            "bufferView" : 0,
            "componentType" : 5126,
            "count" : 41,
            "max" : [
                1.25,
                0,
                1.1666669845581055
            ],
            "min" : [
                -1.25,
                -3.3333330154418945,
                0.042181000113487244
            ],
            "type" : "VEC3"
        },
        {
            "bufferView" : 1,
            "componentType" : 5126,
            "count" : 41,
            "type" : "VEC3"
        },
        {
            "bufferView" : 2,
            "componentType" : 5126,
            "count" : 41,
            "type" : "VEC2"
        },
        {
            "bufferView" : 3,
            "componentType" : 5123,
            "count" : 48,
            "type" : "SCALAR"
        },
        {
            "bufferView" : 4,
            "componentType" : 5126,
            "count" : 22,
            "max" : [
                1.5833330154418945,
                0.33333298563957214,
                4.4375
            ],
            "min" : [
                -1.5833330154418945,
                -3.7083330154418945,
                2.8541669845581055
            ],
            "type" : "VEC3"
        },
        {
            "bufferView" : 5,
            "componentType" : 5126,
            "count" : 22,
            "type" : "VEC3"
        },
        {
            "bufferView" : 6,
            "componentType" : 5126,
            "count" : 22,
            "type" : "VEC2"
        },
        {
            "bufferView" : 7,
            "componentType" : 5123,
            "count" : 24,
            "type" : "SCALAR"
        },
        {
            "bufferView" : 8,
            "componentType" : 5126,
            "count" : 28,
            "max" : [
                1.5833330154418945,
                0.3347199857234955,
                2.8541669845581055
            ],
            "min" : [
                -1.5833330154418945,
                -3.7083330154418945,
                2.6041669845581055
            ],
            "type" : "VEC3"
        },
        {
            "bufferView" : 9,
            "componentType" : 5126,
            "count" : 28,
            "type" : "VEC3"
        },
        {
            "bufferView" : 10,
            "componentType" : 5126,
            "count" : 28,
            "type" : "VEC2"
        },
        {
            "bufferView" : 11,
            "componentType" : 5123,
            "count" : 36,
            "type" : "SCALAR"
        },
        {
            "bufferView" : 12,
            "componentType" : 5126,
            "count" : 987,
            "max" : [
                1.25,
                0,
                2.851677894592285
            ],
            "min" : [
                -1.25,
                -3.3333330154418945,
                1.1641780138015747
            ],
            "type" : "VEC3"
        },
        {
            "bufferView" : 13,
            "componentType" : 5126,
            "count" : 987,
            "type" : "VEC3"
        },
        {
            "bufferView" : 14,
            "componentType" : 5126,
            "count" : 987,
            "type" : "VEC2"
        },
        {
            "bufferView" : 15,
            "componentType" : 5123,
            "count" : 1584,
            "type" : "SCALAR"
        }
    ],
    "bufferViews" : [
        {
            "buffer" : 0,
            "byteLength" : 492,
            "byteOffset" : 0
        },
        {
            "buffer" : 0,
            "byteLength" : 492,
            "byteOffset" : 492
        },
        {
            "buffer" : 0,
            "byteLength" : 328,
            "byteOffset" : 984
        },
        {
            "buffer" : 0,
            "byteLength" : 96,
            "byteOffset" : 1312
        },
        {
            "buffer" : 0,
            "byteLength" : 264,
            "byteOffset" : 1408
        },
        {
            "buffer" : 0,
            "byteLength" : 264,
            "byteOffset" : 1672
        },
        {
            "buffer" : 0,
            "byteLength" : 176,
            "byteOffset" : 1936
        },
        {
            "buffer" : 0,
            "byteLength" : 48,
            "byteOffset" : 2112
        },
        {
            "buffer" : 0,
            "byteLength" : 336,
            "byteOffset" : 2160
        },
        {
            "buffer" : 0,
            "byteLength" : 336,
            "byteOffset" : 2496
        },
        {
            "buffer" : 0,
            "byteLength" : 224,
            "byteOffset" : 2832
        },
        {
            "buffer" : 0,
            "byteLength" : 72,
            "byteOffset" : 3056
        },
        {
            "buffer" : 0,
            "byteLength" : 11844,
            "byteOffset" : 3128
        },
        {
            "buffer" : 0,
            "byteLength" : 11844,
            "byteOffset" : 14972
        },
        {
            "buffer" : 0,
            "byteLength" : 7896,
            "byteOffset" : 26816
        },
        {
            "buffer" : 0,
            "byteLength" : 3168,
            "byteOffset" : 34712
        }
    ],
    "samplers" : [
        {
            "magFilter" : 9729,
            "minFilter" : 9987
        }
    ],
    "buffers" : [
        {
            "byteLength" : 37880,
            "uri" : "cupola.bin"
        }
    ]
}
