{
    "asset" : {
        "generator" : "Khronos glTF Blender I/O v1.7.33",
        "version" : "2.0"
    },
    "scene" : 0,
    "scenes" : [
        {
            "name" : "Scene",
            "nodes" : [
                3
            ]
        }
    ],
    "nodes" : [
        {
            "mesh" : 0,
            "name" : "841565"
        },
        {
            "children" : [
                0
            ],
            "name" : "Other"
        },
        {
            "name" : "Walls"
        },
        {
            "children" : [
                1,
                2
            ],
            "name" : "(1) 6'3x9'4 Breezeway Door with Arch and Windows.0002",
            "rotation" : [
                0.7071068286895752,
                0,
                0,
                -0.7071068286895752
            ],
            "scale" : [
                0.30480000376701355,
                0.30480000376701355,
                0.30480000376701355
            ]
        }
    ],
    "materials" : [
        {
            "doubleSided" : true,
            "name" : "DEFAULT.001",
            "pbrMetallicRoughness" : {
                "baseColorFactor" : [
                    0.49803921580314636,
                    0.49803921580314636,
                    0.49803921580314636,
                    1
                ]
            }
        }
    ],
    "meshes" : [
        {
            "name" : "Mesh_3.001",
            "primitives" : [
                {
                    "attributes" : {
                        "POSITION" : 0,
                        "NORMAL" : 1,
                        "TEXCOORD_0" : 2
                    },
                    "indices" : 3,
                    "material" : 0
                }
            ]
        }
    ],
    "accessors" : [
        {
            "bufferView" : 0,
            "componentType" : 5126,
            "count" : 128,
            "max" : [
                12,
                -0.19475600123405457,
                9.856609344482422
            ],
            "min" : [
                0,
                -0.6041669845581055,
                9.254229545593262
            ],
            "type" : "VEC3"
        },
        {
            "bufferView" : 1,
            "componentType" : 5126,
            "count" : 128,
            "type" : "VEC3"
        },
        {
            "bufferView" : 2,
            "componentType" : 5126,
            "count" : 128,
            "type" : "VEC2"
        },
        {
            "bufferView" : 3,
            "componentType" : 5123,
            "count" : 192,
            "type" : "SCALAR"
        }
    ],
    "bufferViews" : [
        {
            "buffer" : 0,
            "byteLength" : 1536,
            "byteOffset" : 0
        },
        {
            "buffer" : 0,
            "byteLength" : 1536,
            "byteOffset" : 1536
        },
        {
            "buffer" : 0,
            "byteLength" : 1024,
            "byteOffset" : 3072
        },
        {
            "buffer" : 0,
            "byteLength" : 384,
            "byteOffset" : 4096
        }
    ],
    "buffers" : [
        {
            "byteLength" : 4480,
            "uri" : "data:application/octet-stream;base64,"
        }
    ]
}
